Coordinates
version=1
nRows=10
nColumns=34
inDegrees=yes

Units are S.I. units (second, meters, Newtons, ...)
If the header above contains a line with 'inDegrees', this indicates whether rotational values are in degrees (yes) or radians (no).

endheader
time	pelvis_tilt	pelvis_list	pelvis_rotation	pelvis_tx	pelvis_ty	pelvis_tz	hip_flexion_r	hip_adduction_r	hip_rotation_r	knee_angle_r	ankle_angle_r	subtalar_angle_r	mtp_angle_r	hip_flexion_l	hip_adduction_l	hip_rotation_l	knee_angle_l	ankle_angle_l	subtalar_angle_l	mtp_angle_l	lumbar_extension	lumbar_bending	lumbar_rotation	arm_flex_r	arm_add_r	arm_rot_r	elbow_flex_r	pro_sup_r	arm_flex_l	arm_add_l	arm_rot_l	elbow_flex_l	pro_sup_l
      7.41666670	      5.84217600	      1.82488627	   -179.03934264	      0.27024237	      1.08134046	      0.13678273	     44.53249742	      1.25131797	     -4.26851323	     59.15037985	     -5.90783851	    -26.67958174	      0.00000000	    -11.07877826	      0.78777700	     -6.06869478	     17.56168571	    -16.51893837	      3.63768761	      0.00000000	    -13.29528684	     -0.71225805	    -24.05316692	    -30.35217252	    -18.59628467	      3.32497761	     95.96130618	     93.69897696	     18.71321820	    -22.28677863	      5.39081958	    107.29715417	     85.11240847
      7.42500000	      6.34174721	      1.06935392	   -179.34658273	      0.26618717	      1.08568410	      0.13675123	     43.86362850	      1.21533318	     -3.69375384	     52.40809849	     -7.87073980	    -24.45761561	      0.00000000	    -11.94423529	      1.49089977	     -6.28019018	     17.55694360	    -19.30378348	      3.66008827	      0.00000000	    -12.06538842	     -1.46180595	    -25.13720691	    -30.95672564	    -18.58568064	      3.05710093	     96.43052033	     93.79309199	     18.22525628	    -22.84552804	      5.53486847	    107.74007326	     84.89676998
      7.43333330	      6.62738297	      0.13221269	   -179.53237995	      0.26250672	      1.09026448	      0.13690646	     42.83138763	      1.02318477	     -3.00688661	     45.44044911	     -8.99722823	    -20.84674621	      0.00000000	    -12.59985412	      2.47878371	     -5.85989124	     18.39203295	    -21.34764332	      2.27083102	      0.00000000	    -11.17685728	     -2.33993253	    -26.38238378	    -31.46044752	    -18.61382908	      2.70940308	     97.27663678	     93.94787000	     17.64945425	    -23.85672893	      5.90924071	    109.04326895	     84.57660483
      7.44166670	      6.52400118	     -1.01977873	   -179.36930424	      0.25953583	      1.09462605	      0.13775951	     41.15178012	      0.25881202	     -2.59746464	     38.38044313	     -9.35918368	    -15.65943933	      0.00000000	    -13.23784381	      3.67469970	     -4.74121352	     20.07948374	    -22.05122685	      0.53955287	      0.00000000	    -10.96794011	     -3.35891784	    -27.89006458	    -31.91029620	    -18.66847412	      2.56648267	     98.22934942	     94.18805282	     17.31895437	    -25.09620973	      6.77384782	    110.81016427	     84.16439537
      7.45000000	      6.20205622	     -2.16358298	   -179.09758569	      0.25704523	      1.09776675	      0.13847255	     39.04228028	     -0.66071539	     -2.59911800	     31.25846524	    -10.19320325	    -10.52321527	      0.00000000	    -13.90116746	      4.76659861	     -3.85035904	     22.27154838	    -21.69353164	     -1.00586478	      0.00000000	    -10.88505611	     -4.45827933	    -29.09886691	    -32.40106307	    -18.70917667	      2.38369426	     99.20924206	     94.41085898	     17.09964653	    -26.16981286	      8.25984900	    112.64610744	     83.85830366
      7.45833330	      5.62735026	     -3.30446341	   -178.72710832	      0.25490964	      1.10040635	      0.13925079	     36.67796275	     -1.79773817	     -3.18537273	     24.64869570	    -10.97305621	     -5.72319489	      0.00000000	    -14.67602663	      5.83888102	     -2.79511447	     24.84543579	    -20.67105186	     -2.74815698	      0.00000000	    -11.12041051	     -5.53937931	    -30.08090865	    -32.90608791	    -18.59376281	      2.05645350	    100.26793176	     94.62962281	     17.10680828	    -27.26583208	     10.30249550	    114.47352474	     83.62370277
      7.46666670	      4.85925945	     -4.40287787	   -178.29614334	      0.25332423	      1.10189406	      0.13990361	     34.28739829	     -2.95130816	     -4.22133344	     18.75874428	    -11.59130254	     -1.04005019	      0.00000000	    -15.52507358	      6.82921744	     -1.73445834	     27.70824900	    -19.42076399	     -4.78245425	      0.00000000	    -11.63631124	     -6.61003468	    -30.78422254	    -33.45256491	    -18.28126767	      1.54826615	    101.39451016	     94.85063200	     17.48091782	    -28.34911059	     12.75130029	    115.98032568	     83.42596323
      7.47500000	      3.65785654	     -5.42740341	   -178.23208356	      0.25234447	      1.10286203	      0.14004903	     31.89090824	     -3.82595978	     -5.28497369	     14.06301518	    -11.86375229	      3.78631944	      0.00000000	    -16.74658729	      7.82351307	     -1.02862020	     30.73080944	    -18.42247495	     -7.04650994	      0.00000000	    -12.70383767	     -7.65777508	    -29.80337047	    -34.67669587	    -17.14806722	     -0.13625480	    102.43039657	     95.53395285	     19.44107011	    -28.70105113	     16.79930361	    116.03385073	     82.58621649
      7.48333330	      2.96423523	     -6.28894369	   -177.80972496	      0.25140800	      1.10192335	      0.14044509	     30.30954991	     -4.61809983	     -6.60088969	     10.36839617	    -12.71899503	      7.40763462	      0.00000000	    -17.10332204	      8.55906404	     -0.10644474	     34.45107473	    -17.22847152	     -9.31547117	      0.00000000	    -13.19690958	     -8.48393659	    -29.63940177	    -35.42192417	    -16.24366593	     -1.30771614	    103.51874748	     95.88680359	     19.81221951	    -29.21296310	     19.65010800	    116.59858576	     82.22204763
      7.49166670	      2.26840547	     -6.89266503	   -177.52046293	      0.25083499	      1.10058997	      0.14076607	     28.97596624	     -5.06874548	     -7.67066819	      7.58105994	    -13.73556977	     10.14399348	      0.00000000	    -17.17977448	      9.06243561	      0.56344287	     38.66142883	    -16.52936970	    -11.45869672	      0.00000000	    -13.84037193	     -8.94522645	    -29.31140292	    -35.59264853	    -15.41070570	     -2.24346866	    104.25715533	     96.11669895	     20.22571210	    -29.58454101	     21.66423163	    116.65705044	     81.99487530
